# xmcd
#
# Track frame offsets:
#	150
#	18495
#	36359
#	52988
#	71216
#	103303
#	115695
#	138173
#	153102
#	168476
#	194180
#	212152
#
# Disc length: 3058 seconds
#
# Revision: 0
# Processed by: cddbd v1.5.2PL0 Copyright (c) Steve Scherf et al.
# Submitted via: EasyCDDAExtractor 2011.0.0.0
#
DISCID=af0bf00c
DTITLE=Carolyn Wonderland - Peace Mea
DYEAR=2011
DGENRE=
TTITLE0=What Good Drinkin' Do
TTITLE1=Victory of Flying
TTITLE2=Only God Knows When
TTITLE3=St. Marks
TTITLE4=Golden Stairs
TTITLE5=Dust My Broom
TTITLE6=I Can Tell
TTITLE7=Usurper
TTITLE8=No Exeption
TTITLE9=Meet Me In The Morning
TTITLE10=Two Trains
TTITLE11=Shine On
EXTD=
EXTT0=
EXTT1=
EXTT2=
EXTT3=
EXTT4=
EXTT5=
EXTT6=
EXTT7=
EXTT8=
EXTT9=
EXTT10=
EXTT11=
PLAYORDER=
